#!OML:ASF F:\VICON\USERDATA\INSTALL\rory3\rory3.ASF
:FULLY-SPECIFIED
:DEGREES
883
root 8.33472 14.4969 -11.5953 -366.793 -49.6102 362.725
lowerback 19.2616 -0.097978 -7.64252
upperback -1.06373 -1.55909 3.05983
thorax -11.7882 -0.129596 8.29214
lowerneck -10.9196 -7.15173 -4.2608
upperneck 18.7953 -9.68425 2.32937
head 7.92801 -4.74365 0.466858
rclavicle -3.04638e-014 -3.26007e-014
rhumerus 3.44276 -4.27288 -85.6849
rradius 25.9877
rwrist 4.70281
rhand -11.8634 23.8986
rfingers 7.12502
rthumb 14.1886 -5.59687
lclavicle -3.04638e-014 -3.26007e-014
lhumerus -7.36937 -36.9903 92.8647
lradius 47.1537
lwrist 38.8981
lhand -3.20863 26.6631
lfingers 7.12502
lthumb 22.5137 55.3706
rfemur -41.976 -20.9482 7.36889
rtibia 71.033
rfoot -12.7683 -0.244398
rtoes -14.9772
lfemur -27.1156 31.782 -33.1847
ltibia 62.1968
lfoot -37.2748 7.94981
ltoes 25.6605
884
root 8.34116 14.485 -11.6605 -366.38 -49.0005 362.499
lowerback 19.759 -0.120832 -8.11245
upperback -1.25737 -1.72358 3.21348
thorax -12.2518 -0.130964 8.82972
lowerneck -10.7647 -7.03531 -4.29937
upperneck 18.571 -9.51603 2.36441
head 7.82382 -4.66623 0.513023
rclavicle 3.46879e-014 -1.98785e-014
rhumerus 3.18566 -4.0082 -86.1422
rradius 25.5751
rwrist 4.34848
rhand -12.4791 23.8765
rfingers 7.12502
rthumb 13.5952 -5.6596
lclavicle 3.46879e-014 -1.98785e-014
lhumerus -7.66732 -37.2269 92.8344
lradius 46.823
lwrist 39.4484
lhand -3.98602 26.4233
lfingers 7.12502
lthumb 21.7674 55.2193
rfemur -42.2651 -21.1564 7.76459
rtibia 71.7475
rfoot -13.1943 -0.0795037
rtoes -9.93869
lfemur -27.7929 31.7239 -32.9595
ltibia 62.6429
lfoot -36.9675 7.47523
ltoes 25.1909
885
root 8.33386 14.4754 -11.658 -367.017 -48.7046 363.664
lowerback 19.5152 -0.0758385 -8.89087
upperback -1.33014 -1.85314 3.01255
thorax -12.157 -0.1504 9.07933
lowerneck -11.0137 -7.00883 -4.12771
upperneck 18.7153 -9.49115 2.28548
head 7.90221 -4.64508 0.451095
rclavicle 3.35946e-014 1.35174e-014
rhumerus 2.81593 -3.05313 -85.916
rradius 25.4632
rwrist 2.85736
rhand -12.4517 23.6013
rfingers 7.12502
rthumb 13.6217 -5.93297
lclavicle 3.35946e-014 1.35174e-014
lhumerus -8.07895 -37.4021 92.8612
lradius 46.606
lwrist 39.6292
lhand -4.65346 26.5999
lfingers 7.12502
lthumb 21.1263 55.4689
rfemur -42.5042 -21.7329 6.86591
rtibia 72.4449
rfoot -13.3123 0.914888
rtoes -8.06945
lfemur -27.933 31.4112 -34.0043
ltibia 62.4663
lfoot -36.9198 7.65854
ltoes 24.8134
886
root 8.32889 14.4876 -11.6521 -365.523 -49.0503 361.085
lowerback 19.7491 -0.115942 -7.19528
upperback -1.12951 -1.46835 3.45285
thorax -12.1618 -0.0749231 8.48855
lowerneck -11.1359 -6.93962 -4.04262
upperneck 18.8861 -9.38883 2.15959
head 7.9665 -4.59977 0.400283
rclavicle 9.62615e-014 1.59028e-014
rhumerus 2.69235 -3.51079 -86.2717
rradius 24.9817
rwrist 2.91922
rhand -11.7577 23.6925
rfingers 7.12502
rthumb 14.2905 -5.79577
lclavicle 9.62615e-014 1.59028e-014
lhumerus -8.15938 -36.6024 92.8921
lradius 45.7726
lwrist 39.9932
lhand -4.66435 26.5479
lfingers 7.12502
lthumb 21.1159 55.4181
rfemur -41.5971 -21.0209 8.80729
rtibia 72.5176
rfoot -13.7426 0.617232
rtoes -10.8384
lfemur -27.634 31.8507 -31.7087
ltibia 62.9195
lfoot -37.0242 7.17661
ltoes 24.8376
887
root 8.31104 14.4483 -11.6579 -368.619 -47.7 366.467
lowerback 18.8106 -0.0706887 -10.5647
upperback -1.396 -2.23926 2.40037
thorax -11.7185 -0.275221 9.41531
lowerneck -11.314 -7.00071 -3.99532
upperneck 18.9039 -9.46626 2.12485
head 8.00262 -4.6327 0.365996
rclavicle -1.55549e-014 7.95139e-016
rhumerus 2.64235 -3.72948 -86.6208
rradius 24.4867
rwrist 2.85939
rhand -11.761 23.7051
rfingers 7.12502
rthumb 14.2873 -5.78343
lclavicle -1.55549e-014 7.95139e-016
lhumerus -8.38957 -36.0029 93.0263
lradius 45.0618
lwrist 38.9776
lhand -4.15305 26.455
lfingers 7.12502
lthumb 21.607 55.2695
rfemur -43.0724 -23.2921 4.44131
rtibia 74.3383
rfoot -13.6931 2.21765
rtoes -9.86952
lfemur -27.8415 30.6998 -36.4411
ltibia 61.645
lfoot -36.7072 7.82717
ltoes 24.2802
888
root 8.30997 14.477 -11.6461 -367.223 -48.2277 363.898
lowerback 19.0116 -0.0259494 -8.69845
upperback -1.08955 -1.72308 2.73321
thorax -11.6287 -0.160318 8.5668
lowerneck -11.7511 -7.0252 -3.79814
upperneck 19.3428 -9.52114 2.01949
head 8.21367 -4.64539 0.269083
rclavicle 1.00684e-013 -3.33958e-014
rhumerus 2.53691 -4.12857 -86.983
rradius 24.1098
rwrist 3.26149
rhand -11.7064 23.8191
rfingers 7.12502
rthumb 14.3399 -5.66566
lclavicle 1.00684e-013 -3.33958e-014
lhumerus -8.43225 -35.1893 92.9362
lradius 44.3022
lwrist 38.2793
lhand -3.70676 26.2492
lfingers 7.12502
lthumb 22.0355 55.0139
rfemur -42.167 -22.4483 6.47655
rtibia 74.3563
rfoot -13.7751 1.34341
rtoes -15.4932
lfemur -27.3944 31.197 -34.1291
ltibia 61.8456
lfoot -36.6599 7.6117
ltoes 24.3852
889
root 8.30817 14.4803 -11.6627 -366.314 -48.0864 362.578
lowerback 19.2117 -0.0601741 -8.01935
upperback -1.05518 -1.59716 3.00774
thorax -11.7362 -0.128327 8.46046
lowerneck -11.3667 -6.85203 -3.62806
upperneck 18.7448 -9.31127 2.09677
head 7.93377 -4.53552 0.317814
rclavicle 6.55244e-014 3.73715e-014
rhumerus 2.28568 -4.37007 -87.2694
rradius 23.8386
rwrist 3.10923
rhand -12.194 23.4359
rfingers 7.12502
rthumb 13.87 -6.08161
lclavicle 6.55244e-014 3.73715e-014
lhumerus -8.59037 -34.7428 92.838
lradius 43.9123
lwrist 38.0505
lhand -3.41396 26.7859
lfingers 7.12502
lthumb 22.3166 55.5171
rfemur -41.5923 -22.2858 7.52361
rtibia 74.2624
rfoot -13.629 1.70549
rtoes -10.6576
lfemur -27.7201 31.103 -33.0477
ltibia 62.6189
lfoot -36.8033 7.30462
ltoes 24.7962
890
root 8.30371 14.4801 -11.6715 -366.242 -47.8064 362.741
lowerback 19.0732 -0.0713473 -8.2385
upperback -1.1035 -1.65473 2.98446
thorax -11.6967 -0.142617 8.57264
lowerneck -11.4254 -6.79715 -3.72483
upperneck 18.7712 -9.24202 2.22879
head 7.96249 -4.49538 0.380649
rclavicle 7.35752e-014 1.43125e-014
rhumerus 2.06956 -4.43151 -87.5206
rradius 23.6031
rwrist 2.72105
rhand -11.9722 23.4624
rfingers 7.12502
rthumb 14.0838 -6.04037
lclavicle 7.35752e-014 1.43125e-014
lhumerus -8.90105 -34.8022 92.7593
lradius 43.5421
lwrist 38.8861
lhand -3.65269 26.5658
lfingers 7.12502
lthumb 22.0874 55.3243
rfemur -41.7976 -22.6218 7.46549
rtibia 74.8887
rfoot -13.6278 1.49986
rtoes -13.3053
lfemur -27.9597 30.8631 -33.2871
ltibia 62.6805
lfoot -36.7465 7.43346
ltoes 24.6466
891
root 8.29772 14.481 -11.677 -366.811 -47.5161 363.792
lowerback 18.9719 -0.00677327 -9.04747
upperback -1.21288 -1.76656 2.82278
thorax -11.7293 -0.142236 8.89007
lowerneck -11.5607 -6.85894 -3.94132
upperneck 18.9288 -9.26906 2.14253
head 8.04678 -4.52797 0.375537
rclavicle 6.21451e-014 1.74931e-014
rhumerus 1.86023 -4.38971 -87.6303
rradius 23.1629
rwrist 2.20611
rhand -12.0617 22.8547
rfingers 7.12502
rthumb 13.9976 -6.65405
lclavicle 6.21451e-014 1.74931e-014
lhumerus -9.27171 -33.1275 93.1664
lradius 42.8242
lwrist 38.0868
lhand -4.18757 26.755
lfingers 7.12502
lthumb 21.5738 55.5733
rfemur -42.1112 -22.9629 6.58522
rtibia 75.7729
rfoot -13.5652 2.90991
rtoes -7.47209
lfemur -28.0582 30.4908 -34.2004
ltibia 62.3956
lfoot -36.6059 7.38466
ltoes 25.9436
892
root 8.29528 14.4721 -11.6771 -366.568 -47.3773 363.472
lowerback 19.0476 0.0342731 -8.77806
upperback -1.27325 -1.65219 2.87201
thorax -11.8716 -0.0918776 8.76446
lowerneck -11.2436 -6.75017 -3.69982
upperneck 18.7041 -9.12815 1.9561
head 7.88933 -4.46848 0.309013
rclavicle 3.45637e-014 -1.35174e-014
rhumerus 1.74335 -5.30674 -87.9416
rradius 22.5384
rwrist 2.66939
rhand -11.2836 23.5892
rfingers 7.12502
rthumb 14.7473 -5.86623
lclavicle 3.45637e-014 -1.35174e-014
lhumerus -9.57079 -32.705 93.4178
lradius 41.9275
lwrist 37.4275
lhand -1.72564 26.8949
lfingers 7.12502
lthumb 23.9365 55.4229
rfemur -42.0903 -23.1372 6.9537
rtibia 76.2945
rfoot -13.7084 1.86459
rtoes -14.326
lfemur -28.1681 30.3085 -34.0096
ltibia 62.5224
lfoot -36.6583 7.29307
ltoes 26.5233
893
root 8.29777 14.4707 -11.6883 -366.479 -47.1414 363.349
lowerback 19.1806 -0.0117982 -8.83377
upperback -1.25196 -1.73211 2.9229
thorax -11.9037 -0.122175 8.88471
lowerneck -11.3125 -6.59875 -3.39625
upperneck 18.618 -8.90506 1.64844
head 7.83659 -4.36967 0.185197
rclavicle 3.2874e-014 2.46493e-014
rhumerus 1.46345 -4.13113 -88.0908
rradius 22.581
rwrist 2.35531
rhand -11.5927 22.8522
rfingers 7.12502
rthumb 14.4495 -6.62478
lclavicle 3.2874e-014 2.46493e-014
lhumerus -9.77094 -32.5069 93.3155
lradius 41.5757
lwrist 37.6859
lhand -3.40168 26.4122
lfingers 7.12502
lthumb 22.3284 55.142
rfemur -42.0034 -23.4071 7.03629
rtibia 76.8655
rfoot -13.5101 2.78577
rtoes -9.07523
lfemur -28.2246 30.0853 -33.9062
ltibia 62.5642
lfoot -36.5809 7.27842
ltoes 26.6276
894
root 8.29861 14.479 -11.6812 -366.356 -47.1126 363.203
lowerback 19.0886 0.00541094 -8.54239
upperback -1.24606 -1.63948 2.86792
thorax -11.8709 -0.102871 8.61897
lowerneck -11.4179 -6.56144 -3.0372
upperneck 18.6928 -8.8724 1.40498
head 7.84999 -4.35076 0.0482436
rclavicle -1.20016e-014 -2.62396e-014
rhumerus 1.14685 -3.15134 -88.2926
rradius 22.4714
rwrist 1.55091
rhand -13.6496 21.6278
rfingers 7.12502
rthumb 12.467 -7.98038
lclavicle -1.20016e-014 -2.62396e-014
lhumerus -10.0669 -31.5824 93.2878
lradius 41.1737
lwrist 36.9792
lhand -2.95061 26.4238
lfingers 7.12502
lthumb 22.7614 55.1011
rfemur -42.1264 -23.6269 7.25796
rtibia 77.4899
rfoot -13.5793 2.2813
rtoes -14.4338
lfemur -28.2427 29.932 -33.8681
ltibia 62.5728
lfoot -36.7662 7.21163
ltoes 27.0083
